Patient4_TMGait_0pt8_01_left_44_EMG.mot
version=1
nRows=30
nColumns=33
inDegrees=no
endheader
time	1LAddLong	2LGlutMax	3LGlutMed	4LIliopsoas	5LSemiMemb	6LBicFemLong	7LRecFem	8LVastMed	9LVastLat	10LGasMed	11LTibAnt	12lTibPost	13LPeroneusLong	14LSol	15LExtDigLong	16LFlexDigLong	17RAddLong	18RGlutMax	19RGlutMed	20RIliopsoas	21RSemiMemb	22RBicFemLong	23RRecFem	24RVastMed	25RVastLat	26RGasMed	27RTibAnt	28RTibPost	29RPeroneusLong	30RSol	31RExtDigLong	32RFlexDigLong
50.075	0.024719	0.11017	-0.010681	0.007935	0.007172	-0.090179	-0.12238	0.000305	0.15411	-0.016327	0.12894	0.003052	-0.058289	-0.1648	0.016327	0.018768	-0.034637	0.067902	-0.20615	-0.009918	0.22034	0.007935	0.18326	0.16892	-0.040741	-0.015869	-0.066681	0.06012	0.16113	0.037994	-0.003357	-0.018158
50.076	0.019836	0.10254	0.027618	-0.006561	0.013123	-0.090485	-0.12711	0.007629	0.14297	-0.046234	0.1297	0.006866	-0.006561	-0.24429	0.033112	0.021057	-0.023651	0.0354	-0.057373	-0.1004	0.11124	0.029907	0.18112	0.084381	-0.053558	-0.015564	-0.046234	0.025482	0.18692	0.14786	-0.00412	-0.013428
50.077	0.019073	0.13351	-0.024719	0.011292	0.007477	-0.07782	-0.13046	0.007629	0.15488	-0.042114	-0.010529	0.007935	0.029907	-0.15442	0.037537	0.011749	-0.016327	0.043793	0.50034	-0.10193	0.024872	0.075989	0.090637	0.13626	-0.019836	-0.002289	0.043793	0.008392	0.12833	-0.2655	-0.002289	-0.0177
50.078	0.019989	0.14358	-0.062408	-0.003967	0.005188	-0.083618	-0.11673	0.004425	0.15747	-0.032043	-0.20386	0.00946	0.058746	-0.019073	0.05127	0.008087	-0.009308	0.055084	0.58105	-0.052643	-0.018921	0.055237	0.032654	-0.034637	0.046234	0.002441	0.12085	-0.016174	0.05722	-0.34943	-0.003204	-0.008087
50.079	0.014496	0.15854	-0.063477	0.008392	0.006866	-0.058899	-0.11063	0.005646	0.14069	-0.033569	-0.14801	0.001831	0.11108	0.065918	0.024414	0.014801	0.023499	-0.016479	0.13611	-0.077667	-0.024872	-0.026398	0.24994	-0.26596	0.002899	0	0.13016	0.003967	-0.011139	0.2121	-0.000916	-0.000763
50.08	0.015869	0.1709	-0.045166	0.016937	0.002441	-0.051727	-0.11444	0.001984	0.15457	-0.019684	-0.10696	0.004272	0.087585	0.13229	-0.018005	0.00351	0.024872	-0.10284	0.092316	-0.082855	-0.011597	-0.060883	0.09552	-0.32349	0.043488	0.002747	0.14435	0.010529	0.075989	0.076447	-0.003967	-0.002289
50.081	0.011597	0.22064	-0.030975	0.013885	0.003662	-0.042572	-0.089264	0.010071	0.14618	-0.012512	-0.01358	0.000763	0.030365	0.10574	-0.032806	0.000763	-0.009003	-0.13718	-0.020142	-0.077972	-0.012817	-0.071869	-0.085754	-0.2272	0.004578	0.000916	0.14954	0.021057	-0.33859	-0.086212	0.00061	-0.003357
50.082	0.016022	0.25452	-0.056915	0.009613	-0.029144	-0.051422	-0.091095	0.006409	0.14557	-0.021973	0.028381	-0.011139	-0.010223	0.11429	-0.038147	0.004425	0.016785	-0.14481	-0.36606	0.014038	-0.007629	-0.11627	-0.026855	-0.040436	-0.14496	-0.003967	0.24536	-0.002594	-0.49301	-0.15518	-0.006104	-0.005188
50.083	0.020752	0.2861	-0.059814	-0.005341	0.011444	-0.057526	-0.098724	0.008392	0.1297	-0.038147	0.005493	-0.00061	-0.000458	0.10101	-0.064392	0.00885	0.022278	-0.19898	-0.054169	-0.026703	0.005188	-0.15411	0.042114	0.14145	-0.14313	-0.011139	0.24674	-0.04837	0.005646	-0.31036	-0.005798	-0.00885
50.084	0.007172	0.26428	-0.15198	0.004883	-0.004425	-0.043335	-0.081787	0.006409	0.14496	-0.060577	0.003967	-0.002594	0.034943	0.094452	-0.04364	0.003357	0.01297	-0.2005	0.23086	-0.04837	-0.001831	-0.11414	0.054626	0.18326	-0.045013	-0.028687	0.16937	-0.048065	0.031586	-0.076752	-0.003357	-0.000458
50.085	0.017395	0.23453	-0.20676	0.009003	-0.028839	-0.040741	-0.08667	0.009155	0.11459	-0.0383	0.013733	-0.00351	0.02533	0.061646	-0.020905	0.003052	-0.00885	-0.2359	0.2063	-0.046692	-0.076294	-0.010681	0.086823	0.060272	-0.10559	-0.045776	0.12405	0.021362	0.18555	0.27786	-0.000916	0.004883
50.086	0.007935	0.22201	-0.18143	-0.016785	-0.013275	-0.036926	-0.086212	0.006256	0.11551	-0.008698	0.001373	-0.003357	0.030975	0.04715	-0.011292	0.005341	-0.025635	-0.25497	0.18051	-0.075684	-0.032959	0.031891	-0.067444	-0.033722	-0.028992	-0.005493	-0.069733	0.003204	0.26855	0.26642	-0.001678	0.004272
50.087	0.006409	0.22064	-0.12543	-0.006714	-0.007172	-0.059814	-0.088348	0.007019	0.12589	-0.045319	0.009613	0.003662	0.005341	-0.022736	0.003204	0.007935	-0.013123	-0.27359	0.20432	-0.010223	-0.005493	0.008698	-0.2948	0.078735	0.10162	-0.002899	0.078125	-0.00946	-0.21637	0.04837	-0.004425	-0.009766
50.088	0.014343	0.18616	0.041809	0.007629	0.03067	-0.038757	-0.080414	0.006256	0.10788	-0.033417	0.011444	0.00824	-0.02243	-0.26642	-0.005188	-0.00473	0.000916	-0.29159	-0.028076	0.015259	-0.004883	-0.02533	-0.2681	0.15793	0.32547	-0.009155	0.091553	-0.011749	-0.15274	-0.27069	-0.000763	-0.011292
50.089	0.00885	0.14313	0.05188	0.022583	0.025024	-0.013885	-0.07843	0.006866	0.11749	-0.053864	0.011902	-0.005341	0.00473	-0.25757	0.004425	-0.019073	-0.003052	-0.27512	-0.13412	-0.17242	-0.025177	-0.04837	-0.43823	0.000458	0.27847	-0.00946	-0.06012	-0.009308	-0.20737	-0.04425	-0.000916	-0.010529
50.09	0.011444	0.069733	0.089417	0.00824	-0.001526	-0.014954	-0.066681	0.005035	0.10101	-0.044708	0.01236	-0.006866	-0.003967	-0.159	-0.01709	-0.030212	0.006256	-0.29678	-0.15411	-0.112	-0.019836	-0.056152	-0.28839	-0.12299	0.19073	-0.003967	-0.3894	-0.00412	0.2594	0.21271	-0.003357	-0.007019
50.091	0.011444	0.035706	0.030518	0.006104	-0.059967	0.000458	-0.043488	0.004883	0.11017	-0.035706	0.009155	-0.009155	-0.008545	-0.10468	-0.011902	-0.029449	0.016174	-0.34027	-0.29648	0.10895	-0.028992	-0.084076	-0.032806	-0.12634	0.12207	0.007172	-0.47546	-0.014954	0.73654	0.2327	-0.00351	-0.005798
50.092	0.005951	0.02121	-0.043488	-0.010223	-0.090942	-0.001068	-0.070343	0.005951	0.11292	-0.04425	0.019531	-0.01358	-0.00946	-0.079803	0.001526	-0.040741	0.023499	-0.35248	-0.44525	0.21851	-0.066833	-0.076447	0.14084	-0.11429	0.01297	0.010529	-0.21759	-0.019684	-0.22201	0.13016	-0.001678	-0.00061
50.093	0.0177	-0.014191	-0.037994	0.005646	0.001526	-0.00946	-0.06424	0.009155	0.10895	-0.045624	0.009155	-0.009918	-0.010529	-0.13275	0.002136	-0.02655	0.029907	-0.37476	-0.24277	0.18784	-0.14526	-0.054626	-0.029755	-0.15945	-0.003357	0.01358	0.06424	-0.026245	0.044403	0.076752	-0.00351	0.007019
50.094	0.023956	-0.007324	0.001678	0.007477	0.00885	-0.010986	-0.055389	0.008545	0.12009	-0.039368	-0.009308	-0.015717	-0.009308	-0.17029	-0.001526	0.006256	0.045776	-0.32044	1.0843	0.001221	-0.12726	-0.069427	0.051422	-0.093994	0.005188	0.019836	0.11749	-0.007782	1.4845	0.041351	-0.001526	0.003815
50.095	-0.039978	-0.014648	0.00061	0.009003	-0.040131	-0.028839	-0.059814	0.003967	0.096893	-0.039215	-0.085449	-0.009308	-0.012817	-0.15625	-0.005951	0.013885	0.022888	-0.29709	1.0561	-0.058136	-0.033264	-0.050507	0.027008	0.07309	0.008545	0.031433	-0.25375	0.013885	-0.061798	-0.18051	0.006714	-0.006714
50.096	0.00473	-0.08255	-0.000153	0.004425	-0.10132	-0.073853	-0.066833	0.007324	0.075989	-0.032959	-0.14954	-0.011597	-0.022888	-0.076752	-0.014648	-0.011139	-0.005188	-0.39047	0.71228	0.036316	0.072937	-0.042114	-0.18356	0.12283	-0.051727	0.03418	-0.17639	-0.015564	-0.89188	-0.2887	-0.006409	0.00061
50.097	0.010071	-0.033569	-0.092163	0.005951	-0.083466	-0.085144	-0.065155	-0.003052	0.097809	-0.046234	-0.13107	-0.005798	-0.016022	-0.028229	-0.045319	-0.014801	-0.010071	-0.28442	0.035248	0.12146	0.039978	-0.026398	-0.14053	0.04776	-0.038452	0.014343	-0.15305	-0.09903	-0.67795	-0.021973	-0.007019	-0.003815
50.098	0.0354	-0.035858	-0.16571	-0.003815	-0.010834	-0.091553	-0.081482	-0.005951	0.074463	-0.047302	-0.015717	-0.001221	-0.035095	-0.007477	-0.037231	-0.016785	0.003662	-0.3305	-0.052643	0.19836	0.1831	-0.041809	-0.23666	-0.092163	-0.018768	0.014496	0.088501	-0.19348	-0.06897	0.088959	-0.002899	-0.006256
50.099	0.026398	-0.070496	-0.13092	0.009308	0.11658	-0.075073	-0.050201	0.005035	0.051117	-0.06546	0.15808	-0.002899	0.009766	0.011292	0.12039	-0.003967	0.018616	-0.42007	0.16632	0.099335	0.11948	0.014496	-0.26428	-0.15289	-0.003662	0.009766	0.031281	-0.012817	-0.23056	0.18585	-0.003052	-0.002899
50.1	0.02594	-0.083771	-0.12375	0.014954	0.1416	-0.043793	-0.063019	-0.00824	0.061798	-0.11444	0.21408	-0.013123	0.083466	0.030518	-0.036163	0.007477	0.022888	-0.41122	-0.003052	-0.070343	-0.085602	-0.03952	-0.092468	-0.12894	-0.062714	0.00473	-0.092926	0.13046	-0.3006	0.081635	-0.00061	0.000763
50.101	0.02243	-0.11368	0.046844	0.000458	0.072632	-0.001678	-0.04715	-0.013428	0.055542	-0.082245	0.14435	-0.009003	0.014496	0.033112	0.10788	-0.003662	0.002899	-0.42038	0.40817	-0.18326	-0.22751	-0.004578	-0.1506	-0.10651	-0.042725	0.006714	-0.26306	0.17273	-0.15915	0.039368	-0.004272	0.003967
50.102	0.010376	-0.18707	0.121	-0.010376	0.034332	0.015411	-0.06485	-0.007324	0.059967	-0.061646	0.15717	-0.012512	-0.037689	0.045319	-0.016327	0.009155	0.020752	-0.47348	-0.007324	-0.11078	-0.083618	-0.078735	-0.091248	-0.11292	0.006409	-0.004272	-0.20691	0.063782	0.14114	0.24277	-0.003967	-0.000458
50.103	0.002136	-0.16602	0.005798	-0.014496	0.00824	0.018463	-0.045471	-0.004883	0.065308	-0.047302	0.046997	-0.009766	-0.024872	0.079346	-0.055847	0.005188	0.010681	-0.50583	-0.15076	-0.010071	0.1973	-0.085907	-0.025177	-0.062561	0.007324	-0.019531	-0.12695	0.018158	0.11765	0.1503	-0.004578	-0.001221
50.104	0.007477	-0.17624	-0.012665	0.005341	0.010986	0.017242	-0.062714	-0.003815	0.066833	-0.046692	-0.027313	-0.013733	-0.010376	0.051575	-0.03479	0.00885	-0.024567	-0.48309	-0.10788	0.099182	-0.21103	0.065002	-0.14862	0.012054	0.066681	-0.031586	-0.023804	0.001221	0.13077	-0.12695	-0.001221	-0.011597
